<?xml version="1.0" standalone="no"?>
<!DOCTYPE svg PUBLIC "-//W3C//DTD SVG 20010904//EN"
 "http://www.w3.org/TR/2001/REC-SVG-20010904/DTD/svg10.dtd">
<svg version="1.0" xmlns="http://www.w3.org/2000/svg"
 width="1920.000000pt" height="1920.000000pt" viewBox="0 0 1920.000000 1920.000000"
 preserveAspectRatio="xMidYMid meet">

<g transform="translate(0.000000,1920.000000) scale(0.100000,-0.100000)"
fill="#000000" stroke="none">
<path d="M8765 14505 c-11 -2 -69 -9 -130 -15 -423 -45 -883 -214 -1265 -464
-184 -121 -317 -230 -485 -400 -223 -224 -380 -441 -526 -721 -364 -701 -434
-1487 -203 -2252 104 -345 293 -700 529 -993 801 -995 2161 -1368 3355 -922
423 158 794 401 1105 723 103 106 235 260 235 273 0 3 -550 6 -1223 6 -1301 0
-1356 2 -1558 49 -441 104 -835 376 -1081 746 -71 107 -176 319 -213 429 -70
209 -105 496 -86 703 31 331 126 605 300 863 333 496 889 793 1486 793 605 0
1172 -311 1503 -823 51 -79 162 -296 177 -347 l6 -22 -898 -3 c-838 -3 -902
-5 -953 -22 -194 -64 -336 -201 -401 -386 -31 -87 -34 -276 -5 -360 54 -160
166 -291 308 -359 46 -22 110 -44 142 -50 69 -13 3046 -16 3046 -3 0 4 9 68
20 142 45 305 44 585 -1 894 -125 860 -646 1639 -1401 2097 -208 126 -383 208
-613 284 -300 100 -525 135 -885 140 -146 2 -274 2 -285 0z"/>
<path d="M13166 11208 c-30 -497 -184 -1056 -423 -1533 -215 -429 -484 -800
-819 -1125 -700 -681 -1539 -1070 -2539 -1179 -48 -5 703 -9 1858 -10 l1937
-1 0 1980 c0 1089 -2 1980 -3 1980 -2 0 -7 -51 -11 -112z"/>
<path d="M5840 6404 c-175 -47 -304 -169 -346 -328 -20 -76 -18 -202 6 -279
86 -279 438 -409 729 -270 100 48 170 119 219 220 33 69 37 88 40 174 7 157
-36 268 -140 364 -99 92 -219 135 -368 134 -47 0 -110 -7 -140 -15z m256 -222
c81 -42 125 -112 132 -213 12 -166 -89 -281 -244 -281 -81 0 -145 30 -191 90
-39 52 -53 98 -53 177 1 118 67 209 180 246 40 13 133 3 176 -19z"/>
<path d="M11720 6405 c-83 -24 -139 -55 -181 -103 -116 -132 -80 -323 75 -396
29 -14 108 -39 175 -55 147 -37 189 -55 197 -87 16 -62 -31 -89 -151 -89 -94
1 -157 16 -248 62 l-47 23 -40 -86 c-22 -48 -40 -92 -40 -99 0 -15 95 -58 180
-81 45 -12 105 -18 195 -18 112 -1 139 2 199 23 139 48 228 175 211 300 -19
136 -113 200 -376 256 -99 21 -139 45 -139 84 0 16 7 36 15 44 48 48 194 48
312 -1 l72 -29 40 95 c31 72 38 98 28 104 -6 4 -48 20 -92 34 -101 34 -296 43
-385 19z"/>
<path d="M4740 5945 l0 -455 345 0 345 0 0 100 0 100 -215 0 -215 0 0 355 0
355 -130 0 -130 0 0 -455z"/>
<path d="M6630 5945 l0 -455 130 0 130 0 0 120 0 120 73 0 72 -1 80 -119 80
-120 138 0 c108 0 137 3 131 13 -4 6 -48 71 -97 142 l-88 130 23 15 c105 68
151 152 152 275 0 128 -53 224 -154 279 -92 50 -133 56 -412 56 l-258 0 0
-455z m484 241 c52 -22 76 -60 76 -122 0 -98 -57 -134 -214 -134 l-86 0 0 135
0 135 95 0 c59 0 108 -5 129 -14z"/>
<path d="M7600 5945 l0 -455 368 2 367 3 0 95 0 95 -237 3 -238 2 0 85 0 85
200 0 200 0 0 95 0 95 -200 0 -201 0 3 78 c2 52 7 77 16 78 6 1 109 2 227 3
l215 1 0 95 0 95 -360 0 -360 0 0 -455z"/>
<path d="M8480 5945 l0 -455 120 0 120 0 2 231 3 232 114 -187 113 -186 58 0
58 0 45 73 c24 39 75 124 113 189 38 64 72 114 76 112 5 -3 8 -108 8 -235 l0
-229 114 0 c63 0 117 4 120 9 3 4 3 209 -1 455 l-6 446 -106 0 -106 -1 -154
-260 c-85 -143 -157 -256 -161 -252 -4 4 -76 122 -160 261 l-153 252 -109 0
-108 0 0 -455z"/>
<path d="M10110 5945 l0 -455 130 0 130 0 0 455 0 455 -130 0 -130 0 0 -455z"/>
<path d="M10550 5945 l0 -455 130 0 129 0 3 118 3 117 145 6 c116 5 156 10
203 28 84 33 150 89 183 158 25 51 29 69 29 148 0 73 -5 100 -23 140 -42 92
-117 151 -228 179 -49 13 -118 16 -318 16 l-256 0 0 -455z m500 233 c106 -54
86 -207 -31 -238 -22 -6 -76 -10 -122 -8 l-82 3 -3 133 -3 132 99 0 c82 0 105
-4 142 -22z"/>
<path d="M12360 6122 c0 -158 5 -304 11 -337 39 -211 211 -328 459 -312 183
12 300 91 362 246 21 53 23 72 26 369 l4 312 -126 0 -126 0 0 -242 c0 -134 -5
-272 -11 -308 -21 -129 -72 -169 -208 -162 -43 3 -105 62 -120 117 -7 25 -11
146 -11 318 l0 277 -130 0 -130 0 0 -278z"/>
<path d="M13400 5945 l0 -456 118 3 117 3 1 218 c1 120 4 220 7 223 2 3 54
-75 114 -173 l110 -178 59 -3 60 -3 114 193 115 193 5 -235 5 -235 118 -3 117
-3 0 456 0 455 -109 0 -109 0 -155 -262 -155 -261 -29 46 c-15 25 -86 142
-158 261 l-130 215 -107 1 -108 0 0 -455z"/>
<path d="M7231 5055 c-105 -33 -158 -150 -116 -252 21 -49 41 -71 90 -95 91
-47 213 -14 262 70 91 155 -60 334 -236 277z m122 -49 c54 -23 80 -59 85 -118
3 -44 0 -59 -20 -88 -33 -49 -82 -72 -136 -66 -146 19 -180 207 -47 267 48 22
75 23 118 5z"/>
<path d="M8208 5056 c-54 -20 -86 -43 -108 -79 -40 -64 -35 -163 11 -221 49
-63 161 -86 244 -52 52 22 74 43 96 91 50 109 -9 232 -126 264 -51 14 -71 13
-117 -3z m127 -56 c49 -24 78 -70 78 -125 0 -23 -8 -56 -19 -73 -20 -35 -85
-72 -124 -72 -39 0 -104 37 -124 72 -42 70 -13 166 59 199 51 24 79 24 130 -1z"/>
<path d="M9455 5055 c-21 -8 -47 -24 -57 -37 -18 -23 -23 -72 -12 -103 8 -20
68 -51 116 -60 89 -17 127 -75 73 -111 -31 -20 -123 -14 -160 10 -20 13 -25
13 -35 1 -43 -52 146 -92 223 -48 40 24 59 59 52 97 -8 46 -32 65 -121 92 -90
27 -109 42 -100 77 11 45 91 61 160 32 20 -8 36 -11 36 -6 0 5 2 16 6 24 12
32 -118 55 -181 32z"/>
<path d="M6580 4874 l0 -186 118 3 c110 4 121 6 161 32 72 48 100 143 66 224
-37 88 -89 112 -237 113 l-108 0 0 -186z m240 121 c19 -10 39 -32 51 -58 23
-52 23 -66 3 -117 -24 -60 -68 -82 -162 -84 l-77 -1 -3 129 c-1 72 0 136 3
144 7 20 140 10 185 -13z"/>
<path d="M7680 4875 l0 -185 130 0 c123 0 130 1 130 20 0 19 -7 20 -100 20
l-100 0 0 165 0 165 -30 0 -30 0 0 -185z"/>
<path d="M8660 4875 l0 -185 25 0 c24 0 25 3 25 55 l0 55 59 0 60 0 38 -55
c31 -44 43 -55 66 -55 32 0 32 0 -21 73 -33 46 -34 49 -16 62 11 8 22 15 25
15 12 0 39 68 39 97 0 41 -35 92 -75 109 -22 9 -69 14 -130 14 l-95 0 0 -185z
m209 126 c26 -14 43 -65 31 -95 -15 -41 -48 -56 -122 -56 l-68 0 0 78 c0 43 3
82 8 86 9 10 126 0 151 -13z"/>
<path d="M9840 4875 l0 -185 25 0 25 0 0 185 0 185 -25 0 -25 0 0 -185z"/>
<path d="M10060 5040 c0 -16 8 -19 63 -22 l62 -3 3 -162 2 -163 25 0 25 0 0
165 0 165 65 0 c58 0 65 2 65 20 0 19 -7 20 -155 20 -147 0 -155 -1 -155 -20z"/>
<path d="M10815 4884 c-44 -97 -81 -180 -83 -185 -2 -5 9 -9 25 -9 24 0 31 7
46 45 l19 45 101 0 102 0 18 -45 c16 -38 23 -45 47 -45 l29 0 -19 43 c-10 23
-48 105 -83 182 -60 130 -66 140 -93 143 -28 2 -31 -1 -109 -174z m177 -38 c3
-17 8 -16 -78 -16 -75 0 -74 -6 -22 108 l31 67 33 -72 c18 -39 34 -79 36 -87z"/>
<path d="M11280 4875 l0 -185 25 0 25 0 0 125 c0 69 4 125 8 125 4 0 35 -46
68 -102 33 -57 67 -103 74 -103 8 0 44 50 80 110 l65 110 3 -132 3 -133 24 0
25 0 0 185 0 185 -23 0 c-18 0 -36 -24 -95 -125 -41 -69 -77 -125 -81 -125 -4
0 -40 56 -80 125 -61 105 -77 125 -97 125 l-24 0 0 -185z"/>
<path d="M11900 4875 l0 -185 135 0 c128 0 135 1 135 20 0 18 -8 20 -107 22
l-108 3 0 60 0 60 93 3 c83 2 92 5 92 22 0 17 -9 20 -92 22 l-93 3 0 55 0 55
103 3 c94 2 102 4 102 22 0 19 -7 20 -130 20 l-130 0 0 -185z"/>
<path d="M12310 5040 c0 -16 8 -19 63 -22 l62 -3 3 -162 2 -163 25 0 25 0 0
165 0 165 65 0 c58 0 65 2 65 20 0 19 -7 20 -155 20 -147 0 -155 -1 -155 -20z"/>
</g>
</svg>
